<?xml version="1.0" standalone="no"?>
<!DOCTYPE svg PUBLIC "-//W3C//DTD SVG 20010904//EN"
 "http://www.w3.org/TR/2001/REC-SVG-20010904/DTD/svg10.dtd">
<svg version="1.0" xmlns="http://www.w3.org/2000/svg"
 width="32.000000pt" height="32.000000pt" viewBox="0 0 32.000000 32.000000"
 preserveAspectRatio="xMidYMid meet">

<g transform="translate(0.000000,32.000000) scale(0.100000,-0.100000)"
fill="#000000" stroke="none">
<path d="M140 313 c-42 -13 -64 -31 -82 -68 -11 -22 -27 -44 -34 -48 -16 -9
-18 -30 -5 -55 6 -9 12 -33 16 -53 3 -20 17 -46 31 -60 22 -21 35 -24 94 -24
59 0 72 3 94 24 14 14 28 40 31 60 4 20 10 44 16 53 13 25 11 48 -5 54 -7 3
-21 23 -31 44 -24 54 -81 87 -125 73z m63 -182 c4 -1 7 -8 7 -17 0 -12 -4 -14
-12 -7 -15 12 -58 11 -75 0 -8 -5 -13 -3 -13 7 0 21 28 26 93 17z"/>
</g>
</svg>
